# 织梦示例：参数化生成连衣裙网格（含几十顶点与三角面）
# 坐标系：y 向上，裙身沿 y 由腰到摆
v 24.000 130.000 0.000
v 19.416 130.000 14.107
v 7.416 130.000 22.825
v -7.416 130.000 22.825
v -19.416 130.000 14.107
v -24.000 130.000 0.000
v -19.416 130.000 -14.107
v -7.416 130.000 -22.825
v 7.416 130.000 -22.825
v 19.416 130.000 -14.107
v 24.691 116.889 0.000
v 19.976 116.889 14.513
v 7.630 116.889 23.483
v -7.630 116.889 23.483
v -19.976 116.889 14.513
v -24.691 116.889 0.000
v -19.976 116.889 -14.513
v -7.630 116.889 -23.483
v 7.630 116.889 -23.483
v 19.976 116.889 -14.513
v 26.765 103.778 0.000
v 21.654 103.778 15.732
v 8.271 103.778 25.455
v -8.271 103.778 25.455
v -21.654 103.778 15.732
v -26.765 103.778 0.000
v -21.654 103.778 -15.732
v -8.271 103.778 -25.455
v 8.271 103.778 -25.455
v 21.654 103.778 -15.732
v 30.222 90.667 0.000
v 24.450 90.667 17.764
v 9.339 90.667 28.743
v -9.339 90.667 28.743
v -24.450 90.667 17.764
v -30.222 90.667 0.000
v -24.450 90.667 -17.764
v -9.339 90.667 -28.743
v 9.339 90.667 -28.743
v 24.450 90.667 -17.764
v 35.062 77.556 0.000
v 28.366 77.556 20.609
v 10.835 77.556 33.346
v -10.835 77.556 33.346
v -28.366 77.556 20.609
v -35.062 77.556 0.000
v -28.366 77.556 -20.609
v -10.835 77.556 -33.346
v 10.835 77.556 -33.346
v 28.366 77.556 -20.609
v 41.284 64.444 0.000
v 33.399 64.444 24.266
v 12.757 64.444 39.263
v -12.757 64.444 39.263
v -33.399 64.444 24.266
v -41.284 64.444 0.000
v -33.399 64.444 -24.266
v -12.757 64.444 -39.263
v 12.757 64.444 -39.263
v 33.399 64.444 -24.266
v 48.889 51.333 0.000
v 39.552 51.333 28.736
v 15.107 51.333 46.496
v -15.107 51.333 46.496
v -39.552 51.333 28.736
v -48.889 51.333 0.000
v -39.552 51.333 -28.736
v -15.107 51.333 -46.496
v 15.107 51.333 -46.496
v 39.552 51.333 -28.736
v 57.877 38.222 0.000
v 46.823 38.222 34.019
v 17.885 38.222 55.044
v -17.885 38.222 55.044
v -46.823 38.222 34.019
v -57.877 38.222 0.000
v -46.823 38.222 -34.019
v -17.885 38.222 -55.044
v 17.885 38.222 -55.044
v 46.823 38.222 -34.019
v 68.247 25.111 0.000
v 55.213 25.111 40.115
v 21.089 25.111 64.907
v -21.089 25.111 64.907
v -55.213 25.111 40.115
v -68.247 25.111 0.000
v -55.213 25.111 -40.115
v -21.089 25.111 -64.907
v 21.089 25.111 -64.907
v 55.213 25.111 -40.115
v 80.000 12.000 0.000
v 64.721 12.000 47.023
v 24.721 12.000 76.085
v -24.721 12.000 76.085
v -64.721 12.000 47.023
v -80.000 12.000 0.000
v -64.721 12.000 -47.023
v -24.721 12.000 -76.085
v 24.721 12.000 -76.085
v 64.721 12.000 -47.023
v 0.000 130.000 0.000
v 0 0 0
f 1 2 12
f 1 12 11
f 2 3 13
f 2 13 12
f 3 4 14
f 3 14 13
f 4 5 15
f 4 15 14
f 5 6 16
f 5 16 15
f 6 7 17
f 6 17 16
f 7 8 18
f 7 18 17
f 8 9 19
f 8 19 18
f 9 10 20
f 9 20 19
f 10 1 11
f 10 11 20
f 11 12 22
f 11 22 21
f 12 13 23
f 12 23 22
f 13 14 24
f 13 24 23
f 14 15 25
f 14 25 24
f 15 16 26
f 15 26 25
f 16 17 27
f 16 27 26
f 17 18 28
f 17 28 27
f 18 19 29
f 18 29 28
f 19 20 30
f 19 30 29
f 20 11 21
f 20 21 30
f 21 22 32
f 21 32 31
f 22 23 33
f 22 33 32
f 23 24 34
f 23 34 33
f 24 25 35
f 24 35 34
f 25 26 36
f 25 36 35
f 26 27 37
f 26 37 36
f 27 28 38
f 27 38 37
f 28 29 39
f 28 39 38
f 29 30 40
f 29 40 39
f 30 21 31
f 30 31 40
f 31 32 42
f 31 42 41
f 32 33 43
f 32 43 42
f 33 34 44
f 33 44 43
f 34 35 45
f 34 45 44
f 35 36 46
f 35 46 45
f 36 37 47
f 36 47 46
f 37 38 48
f 37 48 47
f 38 39 49
f 38 49 48
f 39 40 50
f 39 50 49
f 40 31 41
f 40 41 50
f 41 42 52
f 41 52 51
f 42 43 53
f 42 53 52
f 43 44 54
f 43 54 53
f 44 45 55
f 44 55 54
f 45 46 56
f 45 56 55
f 46 47 57
f 46 57 56
f 47 48 58
f 47 58 57
f 48 49 59
f 48 59 58
f 49 50 60
f 49 60 59
f 50 41 51
f 50 51 60
f 51 52 62
f 51 62 61
f 52 53 63
f 52 63 62
f 53 54 64
f 53 64 63
f 54 55 65
f 54 65 64
f 55 56 66
f 55 66 65
f 56 57 67
f 56 67 66
f 57 58 68
f 57 68 67
f 58 59 69
f 58 69 68
f 59 60 70
f 59 70 69
f 60 51 61
f 60 61 70
f 61 62 72
f 61 72 71
f 62 63 73
f 62 73 72
f 63 64 74
f 63 74 73
f 64 65 75
f 64 75 74
f 65 66 76
f 65 76 75
f 66 67 77
f 66 77 76
f 67 68 78
f 67 78 77
f 68 69 79
f 68 79 78
f 69 70 80
f 69 80 79
f 70 61 71
f 70 71 80
f 71 72 82
f 71 82 81
f 72 73 83
f 72 83 82
f 73 74 84
f 73 84 83
f 74 75 85
f 74 85 84
f 75 76 86
f 75 86 85
f 76 77 87
f 76 87 86
f 77 78 88
f 77 88 87
f 78 79 89
f 78 89 88
f 79 80 90
f 79 90 89
f 80 71 81
f 80 81 90
f 81 82 92
f 81 92 91
f 82 83 93
f 82 93 92
f 83 84 94
f 83 94 93
f 84 85 95
f 84 95 94
f 85 86 96
f 85 96 95
f 86 87 97
f 86 97 96
f 87 88 98
f 87 98 97
f 88 89 99
f 88 99 98
f 89 90 100
f 89 100 99
f 90 81 91
f 90 91 100
f 1 2 101
f 2 3 101
f 3 4 101
f 4 5 101
f 5 6 101
f 6 7 101
f 7 8 101
f 8 9 101
f 9 10 101
f 10 1 101