0
SECTION
2
HEADER
9
$ACADVER
1
AC1009
0
ENDSEC
0
SECTION
2
TABLES
0
TABLE
2
LAYER
70
4
0
LAYER
2
轮廓线
70
0
62
1
6
CONTINUOUS
0
LAYER
2
结构线
70
0
62
5
6
CONTINUOUS
0
LAYER
2
辅助线
70
0
62
8
6
CONTINUOUS
0
LAYER
2
标注
70
0
62
3
6
CONTINUOUS
0
ENDTAB
0
ENDSEC
0
SECTION
2
ENTITIES
0
LWPOLYLINE
8
轮廓线
90
12
70
1
10
0
20
0
10
280
20
0
10
290
20
60
10
288
20
210
10
262
20
330
10
266
20
470
10
252
20
560
42
-0.2
10
212
20
640
42
0.16
10
180
20
660
10
126
20
684
10
48
20
668
42
-0.3
10
0
20
650
0
LWPOLYLINE
8
结构线
90
2
70
0
10
40
20
660
10
40
20
0
0
CIRCLE
8
标注
10
40
20
96
40
6
0
CIRCLE
8
标注
10
40
20
196
40
6
0
CIRCLE
8
标注
10
40
20
296
40
6
0
LWPOLYLINE
8
结构线
90
2
70
0
10
0
20
330
10
262
20
330
0
LWPOLYLINE
8
结构线
90
2
70
0
10
0
20
560
10
252
20
560
0
LINE
8
辅助线
10
18
20
8
11
18
21
640
0
POINT
8
标注
10
280
20
0
0
POINT
8
标注
10
180
20
660
0
TEXT
8
标注
10
60
20
40
40
20
1
门襟
0
TEXT
8
标注
10
120
20
344
40
18
1
腰围线
0
TEXT
8
标注
10
120
20
574
40
18
1
胸围线
0
TEXT
8
标注
10
30
20
692
40
24
1
衬衫·前片 1:1
0
TEXT
8
标注
10
150
20
672
40
15
1
袖窿(bulge)
0
TEXT
8
标注
10
300
20
330
40
16
1
侧缝
0
ENDSEC