0
SECTION
2
HEADER
9
$ACADVER
1
AC1009
0
ENDSEC
0
SECTION
2
TABLES
0
TABLE
2
LAYER
70
4
0
LAYER
2
轮廓线
70
0
62
1
6
CONTINUOUS
0
LAYER
2
结构线
70
0
62
5
6
CONTINUOUS
0
LAYER
2
辅助线
70
0
62
8
6
CONTINUOUS
0
LAYER
2
标注
70
0
62
3
6
CONTINUOUS
0
ENDTAB
0
ENDSEC
0
SECTION
2
ENTITIES
0
LWPOLYLINE
8
轮廓线
90
12
70
1
10
0
20
0
10
146
20
0
10
218
20
126
10
258
20
330
10
264
20
448
10
252
20
528
10
250
20
552
42
-0.22
10
196
20
592
42
0.18
10
150
20
612
10
96
20
636
10
34
20
618
42
-0.28
10
0
20
600
0
LWPOLYLINE
8
结构线
90
3
70
0
10
0
20
552
10
250
20
552
10
264
20
448
0
LWPOLYLINE
8
结构线
90
2
70
0
10
0
20
330
10
258
20
330
0
LWPOLYLINE
8
结构线
90
2
70
0
10
0
20
448
10
264
20
448
0
LWPOLYLINE
8
结构线
90
2
70
0
10
72
20
330
10
64
20
452
0
LWPOLYLINE
8
结构线
90
2
70
0
10
120
20
330
10
112
20
452
0
LINE
8
辅助线
10
20
20
12
11
20
21
588
0
LINE
8
辅助线
10
146
20
-46
11
146
21
24
0
POINT
8
标注
10
146
20
0
0
POINT
8
标注
10
0
20
448
0
POINT
8
标注
10
150
20
612
0
TEXT
8
标注
10
30
20
30
40
20
1
前中心
0
TEXT
8
标注
10
12
20
340
40
18
1
腰围线
0
TEXT
8
标注
10
12
20
458
40
18
1
臀围线
0
TEXT
8
标注
10
40
20
560
40
18
1
胸围线
0
TEXT
8
标注
10
232
20
560
40
16
1
袖窿弧(bulge)
0
TEXT
8
标注
10
96
20
640
40
24
1
连衣裙·前片 1:1
0
TEXT
8
标注
10
60
20
588
40
16
1
肩线
0
CIRCLE
8
标注
10
146
20
486
40
5
0
ENDSEC